<?xml version="1.0" encoding="utf-8"?>
<!-- Generator: Adobe Illustrator 20.0.0, SVG Export Plug-In . SVG Version: 6.00 Build 0)  -->
<svg version="1.1" id="Warstwa_1" xmlns="http://www.w3.org/2000/svg" xmlns:xlink="http://www.w3.org/1999/xlink" x="0px" y="0px"
	 viewBox="0 0 141 52" style="enable-background:new 0 0 141 52;" xml:space="preserve">
<style type="text/css">
	.st0{fill:#FFFFFF;}
	.st1{fill:#CEB078;}
</style>
<g id="Warstwa_1_1_">
	<path class="st0" d="M22,51C10.4,51,1,41.6,1,30V2c0-0.6,0.4-1,1-1h40c0.6,0,1,0.4,1,1v28C43,41.6,33.6,51,22,51z M3,3v27
		c0,10.5,8.5,19,19,19s19-8.5,19-19V3H3z"/>
	<path class="st1" d="M29.5,15h-15c-0.2,0-0.4-0.1-0.5-0.4l-2-7c-0.1-0.2,0-0.4,0.2-0.5c0.1-0.1,0.3-0.1,0.5,0l5.7,2.9l3.2-2.8
		c0.2-0.2,0.5-0.2,0.7,0l3.2,2.8l5.7-2.9c0.3-0.1,0.5-0.1,0.6,0C32,7.2,32,7.4,32,7.6l-2,7C29.9,14.9,29.7,15,29.5,15z M14.9,14
		h14.2l1.6-5.5l-5,2.5c-0.2,0.1-0.4,0.1-0.5-0.1L22,8.2l-3.2,2.7c-0.2,0.1-0.4,0.2-0.5,0.1l-5-2.5L14.9,14z"/>
</g>
<g id="Warstwa_2">
	<path class="st1" d="M23.5,29h-3c-0.3,0-0.5-0.2-0.5-0.5V25h-3.5c-0.3,0-0.5-0.2-0.5-0.5v-3c0-0.3,0.2-0.5,0.5-0.5H20v-3.5
		c0-0.3,0.2-0.5,0.5-0.5h3c0.3,0,0.5,0.2,0.5,0.5V21h3.5c0.3,0,0.5,0.2,0.5,0.5v3c0,0.3-0.2,0.5-0.5,0.5H24v3.5
		C24,28.8,23.8,29,23.5,29z M21,28h2v-3.5c0-0.3,0.2-0.5,0.5-0.5H27v-2h-3.5c-0.3,0-0.5-0.2-0.5-0.5V18h-2v3.5
		c0,0.3-0.2,0.5-0.5,0.5H17v2h3.5c0.3,0,0.5,0.2,0.5,0.5V28z"/>
	<path class="st1" d="M23.5,43h-3c-0.3,0-0.5-0.2-0.5-0.5V39h-3.5c-0.3,0-0.5-0.2-0.5-0.5v-3c0-0.3,0.2-0.5,0.5-0.5H20v-3.5
		c0-0.3,0.2-0.5,0.5-0.5h3c0.3,0,0.5,0.2,0.5,0.5V35h3.5c0.3,0,0.5,0.2,0.5,0.5v3c0,0.3-0.2,0.5-0.5,0.5H24v3.5
		C24,42.8,23.8,43,23.5,43z M21,42h2v-3.5c0-0.3,0.2-0.5,0.5-0.5H27v-2h-3.5c-0.3,0-0.5-0.2-0.5-0.5V32h-2v3.5
		c0,0.3-0.2,0.5-0.5,0.5H17v2h3.5c0.3,0,0.5,0.2,0.5,0.5V42z"/>
</g>
<g>
	<path class="st0" d="M64.6,19.1l-0.1,2.7H54l0.2-2.4c0.9-1.1,2.1-3,3.8-5.6c1.8-2.8,2.7-4.4,2.7-4.8V8.7c-1.9,0-4.1,0.1-6.5,0.3
		l0.1-2.6h10.1l-0.2,2.4c-0.9,1.2-2.1,3-3.6,5.5c-1.8,2.8-2.6,4.4-2.6,4.8v0.2C59.6,19.3,61.8,19.3,64.6,19.1z"/>
	<path class="st0" d="M76.5,21.7l-2.8,0.1c-0.1-0.3-0.2-0.6-0.2-0.9h-0.2c-0.9,0.7-2,1.1-3.5,1.1c-1,0-1.8-0.3-2.4-0.8s-1-1.3-1-2.2
		c0-1.2,0.5-2.2,1.5-2.9c1-0.8,2.8-1.2,5.3-1.2c0-0.1,0-0.3,0-0.4c0-0.8-0.2-1.4-0.6-1.7c-0.4-0.3-1.2-0.4-2.3-0.4
		c-1.2,0-2.3,0.2-3.5,0.5l0.3-2.2c1.1-0.4,2.6-0.6,4.5-0.6c1.4,0,2.5,0.3,3.3,0.9s1.2,1.6,1.2,3.1c0,0.3,0,0.9,0,1.8
		c0,0.9,0,1.5,0,1.7C76.1,19.4,76.2,20.7,76.5,21.7z M73.3,19.3c0-1.1-0.1-2-0.1-2.7c-2.7,0-4,0.7-4,2c0,0.9,0.6,1.4,1.8,1.4
		C71.9,20,72.7,19.7,73.3,19.3z"/>
	<path class="st0" d="M90,15.7c0,1.7-0.5,3.2-1.5,4.5c-1,1.3-2.3,1.9-4,1.9c-1.3,0-2.1-0.3-2.7-0.8h-0.2l-0.2,0.5h-2.8
		c0.1-2.8,0.2-5.7,0.2-8.7c0-2.9-0.1-5.5-0.4-7.8L81.8,5c-0.1,1.8-0.1,3.9-0.1,6.2h0.1c0.8-0.7,1.9-1,3.2-1c1.5,0,2.7,0.5,3.6,1.6
		C89.6,12.9,90,14.2,90,15.7z M86.9,16c0-1-0.2-1.8-0.7-2.5s-1.2-1.1-2.1-1.1c-1.1,0-1.9,0.3-2.4,1c0,2.7,0.1,4.7,0.2,6.1
		c0.5,0.4,1.1,0.6,1.9,0.6c1,0,1.8-0.4,2.3-1.2C86.6,18,86.9,17.1,86.9,16z"/>
	<path class="st0" d="M102.3,10.6c0,0.5-0.6,2.1-1.7,4.8c-1.3,3.1-2.1,5.3-2.4,6.4c-0.5,2-1.2,3.3-2.1,4.1c-0.8,0.7-2.1,1.1-3.8,1.1
		l-0.2-2.3c1,0,1.8-0.3,2.4-0.8c0.6-0.6,0.9-1.3,0.9-2.2c0-0.9-0.7-3-2.1-6.1c-1.4-3.2-2.1-4.8-2.1-4.9h3.6c0,0.3,0.4,1.6,1.1,4
		c0.7,2.4,1.1,3.8,1.1,4.4h0.2c0-0.5,0.3-1.8,1-4s1-3.7,1-4.3H102.3z"/>
	<path class="st0" d="M111,19.5l-0.2,2.1c-0.6,0.2-1.2,0.4-2.1,0.4c-1.3,0-2.2-0.3-2.9-1c-0.6-0.7-1-2-1-4c0-1.2,0-2.5,0-4
		c-0.4,0-0.9,0-1.6,0.1l0.1-2.3c0.6,0,1.2,0.1,1.7,0.1c0-0.4,0-1.5,0.1-3.3l2.8-0.3c-0.1,1.6-0.2,2.8-0.2,3.6c0.7,0,1.6,0,3-0.1
		l-0.1,2.3c-1.2,0-2.2-0.1-2.9-0.1c0,1,0,2.1,0,3.3c0,1.4,0.1,2.3,0.4,2.8s0.8,0.7,1.5,0.7C110,19.7,110.5,19.7,111,19.5z"/>
	<path class="st0" d="M123.6,21.7H120c0-0.3-0.6-1.3-1.8-2.9c-1.2-1.7-2-2.5-2.3-2.5h-0.2c0,1.6,0,3.4,0.1,5.5h-3.1
		c0.1-3.7,0.1-6.6,0.1-8.7c0-3-0.1-5.6-0.4-7.8l3.4-0.2c-0.1,3-0.2,5.6-0.2,8c0,0.3,0,0.9,0,1.7h0.2c0.2,0,0.8-0.6,1.9-1.9
		s1.5-2,1.5-2.3h3.5c0,0.2-0.5,0.9-1.6,2c-1.1,1.1-1.9,1.9-2.6,2.3v0.2c0.7,0.5,1.7,1.7,3,3.5C122.9,20.4,123.6,21.4,123.6,21.7z"/>
	<path class="st0" d="M128.4,21.7h-3.2c0.1-1.6,0.2-3.5,0.2-5.6c0-2.1-0.1-3.9-0.4-5.5l3.4-0.3c-0.1,1.5-0.2,3.5-0.2,5.8
		C128.3,18.2,128.3,20,128.4,21.7z M129,7c0,0.5-0.2,1-0.5,1.4c-0.4,0.4-0.9,0.6-1.5,0.6c-0.6,0-1-0.2-1.3-0.5
		c-0.3-0.3-0.5-0.8-0.5-1.2c0-0.5,0.2-1,0.5-1.4c0.4-0.4,0.9-0.6,1.5-0.6c0.6,0,1,0.2,1.3,0.5C128.8,6.1,129,6.5,129,7z"/>
	<path class="st0" d="M66,45.3c-1.9,0.5-3.4,0.7-4.7,0.7c-2.7,0-4.8-0.7-6.2-2.2c-1.4-1.5-2.1-3.3-2.1-5.4c0-2.2,0.8-4.2,2.3-5.8
		c1.5-1.6,3.6-2.5,6.3-2.5c1.3,0,2.4,0.1,3.4,0.3l-0.4,2.8c-1.2-0.3-2.3-0.5-3.3-0.5c-1.7,0-2.9,0.5-3.7,1.5c-0.8,1-1.2,2.3-1.2,3.7
		c0,1.5,0.5,2.8,1.4,3.9c0.9,1.1,2.2,1.7,3.8,1.7c0.4,0,1,0,1.6-0.1c-0.1-0.9-0.2-1.7-0.2-2.6c0-0.8-0.1-1.8-0.2-2.9H66
		c-0.1,1.2-0.1,2.4-0.1,3.6C65.9,42.6,65.9,43.8,66,45.3z"/>
	<path class="st0" d="M79.2,45.6l-2.8,0.1c-0.1-0.3-0.1-0.6-0.1-0.9h-0.2c-0.9,0.7-2,1.1-3.3,1.1c-1.5,0-2.7-0.5-3.6-1.6
		c-0.9-1.1-1.3-2.4-1.3-3.9c0-1.7,0.5-3.2,1.5-4.5c1-1.3,2.3-1.9,4-1.9c1.1,0,2,0.2,2.5,0.6h0.2c0-1.9-0.1-3.7-0.3-5.6l3.3-0.1
		C79,30.8,79,33.5,79,36.9C79,40.4,79.1,43.3,79.2,45.6z M76.3,43c0-2.5-0.1-4.6-0.2-6.2c-0.5-0.4-1.2-0.6-1.9-0.6
		c-1,0-1.8,0.4-2.3,1.2s-0.8,1.7-0.8,2.8c0,1,0.2,1.8,0.7,2.6c0.5,0.7,1.2,1.1,2,1.1C75,43.8,75.8,43.5,76.3,43z"/>
	<path class="st0" d="M91.3,45.6l-2.8,0.1c-0.1-0.3-0.2-0.6-0.2-0.9h-0.2c-0.9,0.7-2,1.1-3.5,1.1c-1,0-1.8-0.3-2.4-0.8
		c-0.6-0.5-1-1.3-1-2.2c0-1.2,0.5-2.2,1.5-2.9c1-0.8,2.8-1.2,5.3-1.2c0-0.1,0-0.3,0-0.4c0-0.8-0.2-1.4-0.6-1.7
		c-0.4-0.3-1.2-0.4-2.3-0.4c-1.2,0-2.3,0.2-3.5,0.5l0.3-2.2c1.1-0.4,2.6-0.6,4.5-0.6c1.4,0,2.5,0.3,3.3,0.9s1.2,1.6,1.2,3.1
		c0,0.3,0,0.9,0,1.8c0,0.9,0,1.5,0,1.7C91,43.3,91.1,44.6,91.3,45.6z M88.2,43.2c0-1.1-0.1-2-0.1-2.7c-2.7,0-4,0.7-4,2
		c0,0.9,0.6,1.4,1.8,1.4C86.8,43.9,87.6,43.7,88.2,43.2z"/>
	<path class="st0" d="M104.3,45.7h-3.1c0.2-2,0.3-4,0.3-6c0-1.2-0.2-2.1-0.5-2.5c-0.4-0.4-0.9-0.7-1.7-0.7c-0.9,0-1.7,0.3-2.6,0.9
		c0,3.1,0.1,5.8,0.1,8.3h-3.2c0.1-2.5,0.2-4.4,0.2-5.8c0-1.9-0.2-3.6-0.6-5.3l3-0.3l0.2,1.2h0.2c1.1-0.9,2.3-1.4,3.7-1.4
		c1.2,0,2.2,0.3,2.9,0.9c0.7,0.6,1.1,1.6,1.1,3.1c0,0.2,0,0.5,0,0.9c0,0.4,0,0.8,0,1.2C104.2,41.2,104.2,43.1,104.3,45.7z
		 M103.8,29.1c0,0.1-0.5,0.7-1.6,1.9c-1.1,1.2-1.6,1.8-1.6,1.9h-2.1c0-0.1,0.4-0.8,1.1-1.9c0.7-1.2,1.1-1.8,1.1-1.9H103.8z"/>
	<path class="st0" d="M114.9,42.4c0,2.4-1.7,3.5-5.2,3.5c-1.3,0-2.4-0.1-3.3-0.4l0.4-2.3c1,0.4,2,0.5,2.9,0.5c0.9,0,1.6-0.1,2-0.2
		c0.4-0.2,0.5-0.4,0.5-0.8c0-0.6-0.7-1.1-2-1.6c-1.2-0.5-2-0.9-2.5-1.3c-0.7-0.6-1.1-1.4-1.1-2.2c0-1,0.4-1.9,1.2-2.5s1.9-1,3.4-1
		c1.4,0,2.5,0.1,3.3,0.4l-0.4,2.3c-0.9-0.3-1.8-0.5-2.9-0.5c-1.3,0-1.9,0.3-1.9,1c0,0.3,0.1,0.6,0.4,0.8c0.3,0.2,0.8,0.5,1.6,0.8
		c1.1,0.4,2,0.8,2.5,1.3C114.6,40.7,114.9,41.5,114.9,42.4z"/>
	<path class="st0" d="M127.9,45.7h-3.6c0-0.3-0.6-1.3-1.8-2.9c-1.2-1.7-2-2.5-2.3-2.5H120c0,1.6,0,3.4,0.1,5.5h-3.1
		c0.1-3.7,0.1-6.6,0.1-8.7c0-3-0.1-5.6-0.4-7.8l3.4-0.2c-0.1,3-0.2,5.6-0.2,8c0,0.3,0,0.9,0,1.7h0.2c0.2,0,0.8-0.6,1.9-1.9
		s1.5-2,1.5-2.3h3.5c0,0.2-0.5,0.9-1.6,2s-1.9,1.9-2.6,2.3V39c0.7,0.5,1.7,1.7,3,3.5C127.2,44.3,127.9,45.3,127.9,45.7z"/>
	<path class="st0" d="M139,45.6l-2.8,0.1c-0.1-0.3-0.2-0.6-0.2-0.9h-0.2c-0.9,0.7-2,1.1-3.5,1.1c-1,0-1.8-0.3-2.4-0.8s-1-1.3-1-2.2
		c0-1.2,0.5-2.2,1.5-2.9c1-0.8,2.8-1.2,5.3-1.2c0-0.1,0-0.3,0-0.4c0-0.8-0.2-1.4-0.6-1.7s-1.2-0.4-2.3-0.4c-1.2,0-2.3,0.2-3.5,0.5
		l0.3-2.2c1.1-0.4,2.6-0.6,4.5-0.6c1.4,0,2.5,0.3,3.3,0.9c0.8,0.6,1.2,1.6,1.2,3.1c0,0.3,0,0.9,0,1.8c0,0.9,0,1.5,0,1.7
		C138.6,43.3,138.7,44.6,139,45.6z M135.8,43.2c0-1.1-0.1-2-0.1-2.7c-2.7,0-4,0.7-4,2c0,0.9,0.6,1.4,1.8,1.4
		C134.5,43.9,135.2,43.7,135.8,43.2z"/>
</g>
</svg>
