<?xml version="1.0" encoding="utf-8"?>
<!-- Generator: Adobe Illustrator 20.0.0, SVG Export Plug-In . SVG Version: 6.00 Build 0)  -->
<svg version="1.1" id="Warstwa_1" xmlns="http://www.w3.org/2000/svg" xmlns:xlink="http://www.w3.org/1999/xlink" x="0px" y="0px"
	 viewBox="0 0 24 24" style="enable-background:new 0 0 24 24;" xml:space="preserve">
<style type="text/css">
	.st0{fill:#FFFFFF;}
</style>
<path class="st0" d="M10.1,16.1c2.3-0.5,4.4-1,3.4-2.9C10.4,7.2,12.7,4,16,4c3.4,0,5.6,3.3,2.5,9.1c-1.1,2,1.1,2.4,3.4,2.9
	c2,0.5,2.1,1.4,2.1,3.1l0,0.8h-1.3c0-2.1,0.1-2.4-1.2-2.7c-1.9-0.4-3.7-0.9-4.4-2.3c-0.2-0.5-0.4-1.4,0.2-2.5c1.4-2.5,1.7-4.7,0.9-6
	c-0.9-1.5-3.6-1.5-4.5,0c-0.8,1.3-0.4,3.5,0.9,6c0.6,1.1,0.4,2,0.2,2.5c-0.7,1.4-2.5,1.9-4.4,2.3c-1.3,0.3-1.2,0.6-1.2,2.7H8
	C8,17.8,7.8,16.6,10.1,16.1z M0,20h1.3c0-1.9-0.2-1.4,1.8-2c1-0.3,1.9-0.7,2.3-1.6c0.2-0.5,0.4-1.2-0.2-2.2c-1-1.8-1.2-3.4-0.7-4.2
	c0.5-0.9,2.3-0.9,2.8,0c0.9,1.6-0.8,4-1,5h1.4C8.2,14,9,12.8,9,11.1C9,9.1,7.7,8,6,8c-2.5,0-4.2,2.4-1.9,6.8
	c0.8,1.5-0.8,1.8-2.5,2.2C0.1,17.4,0,18.1,0,19.4C0,19.4,0,20,0,20z"/>
</svg>
