<?xml version="1.0" encoding="utf-8"?>
<!-- Generator: Adobe Illustrator 20.1.0, SVG Export Plug-In . SVG Version: 6.00 Build 0)  -->
<svg version="1.1" id="Warstwa_2" xmlns="http://www.w3.org/2000/svg" xmlns:xlink="http://www.w3.org/1999/xlink" x="0px" y="0px"
     viewBox="0 0 27 90" style="enable-background:new 0 0 27 90;" xml:space="preserve">
<style type="text/css">
    .st0{fill:none;}
    .st1{fill:#F2B41C;}
    .st2{fill:#FCEFCE;}
    .st3{fill:#F9DD99;}
    .st4{fill:#442015;}
    .st5{fill:#AA976B;}
</style>
<path class="st0" d="M7.9,4h2.2l3.4-0.1L16.9,4H19V2.8c0-0.3,0.1-0.5,0-0.6C18.8,2,18.4,2,18.4,2L8.7,2C8.5,2,8.2,2,8,2.3
    c0,0,0,0.2,0,0.6v0.9L7.9,4L7.9,4z"/>
<path class="st1" d="M11.5,37.3C8.6,39.9,8.1,44.1,8,46h14c0.6,0,1,0.4,1,1v32c0,0.6-0.4,1-1,1H8v8c0.1,0,0.1,0,0.2,0H19
    c3.3,0,5.4-1.4,5.8-1.8c0.1-0.4,0.1-1.5,0.1-2.6v-39c0-2.5-1.2-4.1-2.4-5.6c-0.9-1.2-1.8-2.3-1.8-3.8c0-0.5,0-1.3,0-2.2
    c0-0.9,0-1.9,0-3.1h-10L11.5,37.3z"/>
<path class="st1" d="M4,79V47c0-0.6,0.4-1,1-1h0c0.2-6.2,1.8-6.3,3.3-8.3c1.5-2.1,0.1-7.3,0-7.7H6.3c0,1.5,0,2.8,0,3.9l0,1.5
    c0,1.4-0.9,2.6-1.9,3.8c-1.2,1.5-2.5,3-2.5,5.6v38.9c0,1.1,0.1,2.3,0.2,2.6c0.3,0.2,1.3,0.9,2.8,1.4c0-1.1,0-3.8,0-7.5
    C4.4,80,4,79.6,4,79z"/>
<path class="st2" d="M6.3,30h1.9c0,0,0,0,0,0l2.6,0h10c0-1.6,0-3,0-5H6.4C6.3,27,6.3,28.3,6.3,30z"/>
<path class="st3" d="M8.3,37.7C6.9,39.7,5.2,39.8,5,46h3c0.1-1.9,0.6-6.1,3.5-8.7L10.8,30l-2.6,0c0,0,0,0,0,0
    C8.4,30.3,9.7,35.6,8.3,37.7z"/>
<path class="st3" d="M5,80c0,3.7,0,6.5,0,7.5C5.8,87.8,6.9,88,8,88v-8H5z"/>
<path class="st4" d="M27,83.6V44.6c0-3.2-1.6-5.2-2.8-6.8c-0.8-1-1.4-1.8-1.4-2.5c0-0.5,0-1.3,0-2.2c0-4.2,0.1-11.2-0.3-14
    c-0.2-1.8-0.8-3.8-1.3-5.6c-0.4-1.6-0.8-3.2-0.8-3.8c0-0.4,0-0.5,0-0.5c0,0,0-0.1,0.1-0.1c0.4-0.5,0.6-0.9,0.6-2
    c0-0.5-0.1-0.9-0.2-1.2l-2.2-0.1c0.1,0.2,0.3,0.6,0.3,1.3c0,0.6-0.1,0.7-0.1,0.8c-0.4,0.4-0.6,0.9-0.6,1.9c0,0.9,0.4,2.5,0.9,4.4
    c0.5,1.7,1,3.7,1.2,5.3c0.2,1.2,0.2,3.2,0.3,5.5c0,1.7,0,3.5,0,5.2c0,1.1,0,2.2,0,3.1c0,1,0,1.7,0,2.2c0,1.4,0.9,2.6,1.8,3.8
    c1.2,1.5,2.4,3,2.4,5.6v39c0,1.1,0,2.2-0.1,2.6C24.4,86.6,22.3,88,19,88H8.2c-0.1,0-0.1,0-0.2,0c-1.1,0-2.2-0.2-3-0.5
    c-1.5-0.5-2.5-1.1-2.8-1.4C2.1,85.8,2,84.6,2,83.6V44.6c0-2.5,1.3-4.1,2.5-5.6c1-1.2,1.9-2.3,1.9-3.8l0-1.5c0-1,0-2.4,0-3.9
    c0-1.7,0-3.5,0-5.2c0-2.3,0.1-4.3,0.3-5.5c0.2-1.6,0.7-3.6,1.2-5.3c0.5-1.9,0.9-3.4,0.9-4.4c0-1-0.2-1.4-0.6-1.9
    C8.1,7.7,8.1,7.6,8.1,7c0-0.7,0.2-1.1,0.3-1.3L6.2,5.8C6.1,6.2,6.1,6.6,6.1,7c0,1.1,0.2,1.6,0.6,2c0,0,0,0,0.1,0.1c0,0,0,0.1,0,0.5
    c0,0.7-0.4,2.2-0.8,3.8c-0.5,1.8-1,3.8-1.3,5.6c-0.4,3-0.4,11-0.4,14.8l0,1.5c0,0.7-0.7,1.6-1.4,2.5C1.6,39.4,0,41.4,0,44.6v38.9
    c0,3.1,0.5,3.7,0.7,3.9C1.4,88.2,4.2,90,8.2,90H19c3.9,0,6.7-1.7,7.4-2.6C26.6,87.2,27,86.6,27,83.6z"/>
<rect x="6" y="48" class="st5" width="15" height="30"/>
<path class="st4" d="M5,46c-0.6,0-1,0.4-1,1v32c0,0.6,0.4,1,1,1h3h14c0.6,0,1-0.4,1-1V47c0-0.6-0.4-1-1-1H8H5L5,46z M21,78H6V48h15
    V78z"/>
<path class="st4" d="M13.5,5.6l7.3,0.2l0.2,0v-3c0-1.1-0.3-1.7-0.7-2.1C19.5,0,18.4,0,18.4,0L8.8,0C8.6,0,7.5,0,6.6,0.8
    C6.3,1.2,6,1.8,6,2.8v3l0.4,0L13.5,5.6z M8,2.3C8.3,2,8.6,2,8.8,2l9.7,0c0,0,0.2,0,0.4,0.2c0.1,0.1,0,1.6,0,1.6l-5.6-0.2L8,3.8
    C8,3.8,8,2.3,8,2.3z"/>
</svg>