<?xml version="1.0" encoding="utf-8"?>
<!-- Generator: Adobe Illustrator 20.0.0, SVG Export Plug-In . SVG Version: 6.00 Build 0)  -->
<svg version="1.1" id="Warstwa_1" xmlns="http://www.w3.org/2000/svg" xmlns:xlink="http://www.w3.org/1999/xlink" x="0px" y="0px"
	 viewBox="0 0 54 40" style="enable-background:new 0 0 54 40;" xml:space="preserve">
<style type="text/css">
	.st0{fill:none;}
	.st1{fill:#F2B41C;}
	.st2{fill:#F9DD99;}
	.st3{fill:#AA976B;}
</style>
<g>
	<path class="st0" d="M35,3c0-0.6-0.5-1-1.1-1H21.1C20.5,2,20,2.4,20,3v5h15V3z"/>
	<path class="st1" d="M51,10h-0.6L32,18.7V20h6v8h-6v6h-8v-6h-6v-2.7L2,32.9V37c0,0.6,0.4,1,1,1h48c0.6,0,1-0.4,1-1V11
		C52,10.4,51.6,10,51,10z"/>
	<path class="st2" d="M18,20h6v-6h8v4.7L50.4,10H3c-0.6,0-1,0.4-1,1v21.9l16-7.6V20z"/>
	<polygon class="st3" points="30,22 30,21 30,16 26,16 26,21 26,22 20,22 20,26 26,26 26,27 26,32 30,32 30,27 30,26 36,26 36,22 	
		"/>
	<path d="M51,8H37V3c0-1.7-1.4-3-3.1-3H21.1C19.4,0,18,1.3,18,3v5H3c-1.7,0-3,1.3-3,3v26c0,1.7,1.3,3,3,3h48c1.7,0,3-1.3,3-3V11
		C54,9.3,52.7,8,51,8z M20,3c0-0.6,0.5-1,1.1-1h12.8C34.5,2,35,2.4,35,3v5H20V3z M52,37c0,0.6-0.4,1-1,1H3c-0.6,0-1-0.4-1-1v-4.1V11
		c0-0.6,0.4-1,1-1h47.4H51c0.6,0,1,0.4,1,1V37z"/>
	<path d="M24,14v6h-6v5.3V28h6v6h8v-6h6v-8h-6v-1.3V14H24z M36,26h-6v1.4V32h-4v-4.6V26h-6v-4h6v-1.1V16h4v4.9V22h6V26z"/>
</g>
</svg>
